<mxfile host="app.diagrams.net" modified="2024-06-01T09:48:58.821Z" agent="Mozilla/5.0 (Macintosh; Intel Mac OS X 10_15_7) AppleWebKit/537.36 (KHTML, like Gecko) Chrome/124.0.0.0 Safari/537.36" etag="77rP1bgyFT7CQ0nlgZOl" version="24.4.13" type="github">
  <diagram name="Page-1" id="clL2nZNg3tl7SdP0jycB">
    <mxGraphModel dx="1247" dy="713" grid="1" gridSize="10" guides="1" tooltips="1" connect="1" arrows="1" fold="1" page="1" pageScale="1" pageWidth="850" pageHeight="1100" math="0" shadow="0">
      <root>
        <mxCell id="0" />
        <mxCell id="1" parent="0" />
        <mxCell id="jmT_zw8N5mIID7Gmy5z_-11" style="edgeStyle=orthogonalEdgeStyle;rounded=0;orthogonalLoop=1;jettySize=auto;html=1;entryX=0.034;entryY=0.515;entryDx=0;entryDy=0;entryPerimeter=0;" edge="1" parent="1" source="jmT_zw8N5mIID7Gmy5z_-1" target="jmT_zw8N5mIID7Gmy5z_-5">
          <mxGeometry relative="1" as="geometry">
            <mxPoint x="340" y="300" as="targetPoint" />
          </mxGeometry>
        </mxCell>
        <mxCell id="jmT_zw8N5mIID7Gmy5z_-1" value="" style="image;aspect=fixed;perimeter=ellipsePerimeter;html=1;align=center;shadow=0;dashed=0;fontColor=#4277BB;labelBackgroundColor=default;fontSize=12;spacingTop=3;image=img/lib/ibm/infrastructure/mobile_backend.svg;" vertex="1" parent="1">
          <mxGeometry x="110" y="270" width="60" height="60" as="geometry" />
        </mxCell>
        <mxCell id="jmT_zw8N5mIID7Gmy5z_-2" value="" style="image;aspect=fixed;html=1;points=[];align=center;fontSize=12;image=img/lib/azure2/databases/Azure_Database_PostgreSQL_Server.svg;" vertex="1" parent="1">
          <mxGeometry x="610" y="268" width="48" height="64" as="geometry" />
        </mxCell>
        <mxCell id="jmT_zw8N5mIID7Gmy5z_-3" value="" style="aspect=fixed;sketch=0;html=1;dashed=0;whitespace=wrap;verticalLabelPosition=bottom;verticalAlign=top;fillColor=#2875E2;strokeColor=#ffffff;points=[[0.005,0.63,0],[0.1,0.2,0],[0.9,0.2,0],[0.5,0,0],[0.995,0.63,0],[0.72,0.99,0],[0.5,1,0],[0.28,0.99,0]];shape=mxgraph.kubernetes.icon2;kubernetesLabel=1;prIcon=pod" vertex="1" parent="1">
          <mxGeometry x="472.09" y="263" width="60.41" height="58" as="geometry" />
        </mxCell>
        <mxCell id="jmT_zw8N5mIID7Gmy5z_-4" value="" style="aspect=fixed;sketch=0;html=1;dashed=0;whitespace=wrap;verticalLabelPosition=bottom;verticalAlign=top;fillColor=#2875E2;strokeColor=#ffffff;points=[[0.005,0.63,0],[0.1,0.2,0],[0.9,0.2,0],[0.5,0,0],[0.995,0.63,0],[0.72,0.99,0],[0.5,1,0],[0.28,0.99,0]];shape=mxgraph.kubernetes.icon2;kubernetesLabel=1;prIcon=node" vertex="1" parent="1">
          <mxGeometry x="466.88" y="400" width="70.83" height="68" as="geometry" />
        </mxCell>
        <mxCell id="jmT_zw8N5mIID7Gmy5z_-5" value="" style="aspect=fixed;sketch=0;html=1;dashed=0;whitespace=wrap;verticalLabelPosition=bottom;verticalAlign=top;fillColor=#2875E2;strokeColor=#ffffff;points=[[0.005,0.63,0],[0.1,0.2,0],[0.9,0.2,0],[0.5,0,0],[0.995,0.63,0],[0.72,0.99,0],[0.5,1,0],[0.28,0.99,0]];shape=mxgraph.kubernetes.icon2;kubernetesLabel=1;prIcon=svc" vertex="1" parent="1">
          <mxGeometry x="280" y="270" width="62.5" height="60" as="geometry" />
        </mxCell>
        <mxCell id="jmT_zw8N5mIID7Gmy5z_-6" value="PostgreSQL&lt;div&gt;container&lt;/div&gt;" style="text;html=1;align=center;verticalAlign=middle;resizable=0;points=[];autosize=1;strokeColor=none;fillColor=none;" vertex="1" parent="1">
          <mxGeometry x="589" y="333" width="90" height="40" as="geometry" />
        </mxCell>
        <mxCell id="jmT_zw8N5mIID7Gmy5z_-7" style="edgeStyle=orthogonalEdgeStyle;rounded=0;orthogonalLoop=1;jettySize=auto;html=1;entryX=0.005;entryY=0.63;entryDx=0;entryDy=0;entryPerimeter=0;" edge="1" parent="1" source="jmT_zw8N5mIID7Gmy5z_-5" target="jmT_zw8N5mIID7Gmy5z_-3">
          <mxGeometry relative="1" as="geometry" />
        </mxCell>
        <mxCell id="jmT_zw8N5mIID7Gmy5z_-8" style="edgeStyle=orthogonalEdgeStyle;rounded=0;orthogonalLoop=1;jettySize=auto;html=1;entryX=0.5;entryY=0;entryDx=0;entryDy=0;entryPerimeter=0;" edge="1" parent="1" source="jmT_zw8N5mIID7Gmy5z_-3" target="jmT_zw8N5mIID7Gmy5z_-4">
          <mxGeometry relative="1" as="geometry" />
        </mxCell>
        <mxCell id="jmT_zw8N5mIID7Gmy5z_-9" value="Runs on" style="text;html=1;align=center;verticalAlign=middle;resizable=0;points=[];autosize=1;strokeColor=none;fillColor=none;" vertex="1" parent="1">
          <mxGeometry x="495" y="350" width="70" height="30" as="geometry" />
        </mxCell>
        <mxCell id="jmT_zw8N5mIID7Gmy5z_-12" value="Connects to&lt;div&gt;&amp;nbsp;port 30432&lt;/div&gt;" style="text;html=1;align=center;verticalAlign=middle;resizable=0;points=[];autosize=1;strokeColor=none;fillColor=none;" vertex="1" parent="1">
          <mxGeometry x="170" y="263" width="90" height="40" as="geometry" />
        </mxCell>
        <mxCell id="jmT_zw8N5mIID7Gmy5z_-13" value="Forwards to&amp;nbsp;&lt;span style=&quot;background-color: initial;&quot;&gt;port&lt;/span&gt;&lt;div&gt;&lt;span style=&quot;background-color: initial;&quot;&gt;&amp;nbsp;5432 of pod&lt;/span&gt;&lt;/div&gt;" style="text;html=1;align=center;verticalAlign=middle;resizable=0;points=[];autosize=1;strokeColor=none;fillColor=none;" vertex="1" parent="1">
          <mxGeometry x="347.5" y="263" width="110" height="40" as="geometry" />
        </mxCell>
        <mxCell id="jmT_zw8N5mIID7Gmy5z_-14" style="edgeStyle=orthogonalEdgeStyle;rounded=0;orthogonalLoop=1;jettySize=auto;html=1;entryX=0.995;entryY=0.63;entryDx=0;entryDy=0;entryPerimeter=0;" edge="1" parent="1" source="jmT_zw8N5mIID7Gmy5z_-2" target="jmT_zw8N5mIID7Gmy5z_-3">
          <mxGeometry relative="1" as="geometry" />
        </mxCell>
        <mxCell id="jmT_zw8N5mIID7Gmy5z_-15" value="Runs inside" style="text;html=1;align=center;verticalAlign=middle;resizable=0;points=[];autosize=1;strokeColor=none;fillColor=none;" vertex="1" parent="1">
          <mxGeometry x="530" y="273" width="90" height="30" as="geometry" />
        </mxCell>
        <mxCell id="jmT_zw8N5mIID7Gmy5z_-16" value="Application Backend" style="text;html=1;align=center;verticalAlign=middle;resizable=0;points=[];autosize=1;strokeColor=none;fillColor=none;" vertex="1" parent="1">
          <mxGeometry x="75" y="330" width="130" height="30" as="geometry" />
        </mxCell>
      </root>
    </mxGraphModel>
  </diagram>
</mxfile>
